<?xml version="1.0" standalone="no"?>
<!DOCTYPE svg PUBLIC "-//W3C//DTD SVG 20010904//EN"
 "http://www.w3.org/TR/2001/REC-SVG-20010904/DTD/svg10.dtd">
<svg version="1.0" xmlns="http://www.w3.org/2000/svg"
 width="65.000000pt" height="65.000000pt" viewBox="0 0 65.000000 65.000000"
 preserveAspectRatio="xMidYMid meet">
<metadata>
Created by potrace 1.16, written by Peter Selinger 2001-2019
</metadata>
<g transform="translate(0.000000,65.000000) scale(0.100000,-0.100000)"
fill="#000000" stroke="none">
<path d="M10 571 c0 -8 275 -489 285 -500 4 -3 10 6 116 186 53 92 63 103 88
103 20 0 31 7 39 25 7 14 12 28 12 30 0 3 -44 5 -99 5 -94 0 -99 -1 -115 -25
-21 -31 -20 -35 5 -35 19 0 19 -2 -8 -50 -15 -27 -30 -50 -33 -50 -5 0 -100
185 -100 195 0 2 86 6 192 7 l192 3 27 45 c15 25 28 51 28 58 1 9 -68 12 -314
12 -180 0 -315 -4 -315 -9z"/>
</g>
</svg>
